<!DOCTYPE svg PUBLIC "-//W3C//DTD SVG 1.1//EN" "http://www.w3.org/Graphics/SVG/1.1/DTD/svg11.dtd">
<!-- Uploaded to: SVG Repo, www.svgrepo.com, Transformed by: SVG Repo Mixer Tools -->
<svg fill="#da95d8" version="1.1" id="Layer_1" xmlns="http://www.w3.org/2000/svg" xmlns:xlink="http://www.w3.org/1999/xlink" width="197px" height="197px" viewBox="-25.4 -25.4 304.80 304.80" enable-background="new 0 0 254 260" xml:space="preserve" stroke="#da95d8">
<g id="SVGRepo_bgCarrier" stroke-width="0">
<rect x="-25.4" y="-25.4" width="304.80" height="304.80" rx="152.4" fill="#f9fbfb" strokewidth="0"/>
</g>
<g id="SVGRepo_tracerCarrier" stroke-linecap="round" stroke-linejoin="round"/>
<g id="SVGRepo_iconCarrier"> <path d="M117.961,28.107C128.897,17.233,141.923,8.303,156.593,2c-1.124,7.206-1.239,14.517-0.374,21.732 c-8.558,5.813-16.423,12.455-23.537,19.872C128.134,38.068,123.218,32.899,117.961,28.107z M234.94,145.463 c-12.587-1.389-23.238,6.573-31.936,18.83c-11.577,15.015-26.356,22.344-40.027,25.227c27.075-17.001,39.964-51.354,29.645-82.05 c-7.95-23.652-25.636-52.544-22.152-78.21c-9.501,5.545-47.084,31.661-60.972,76.48c-9.725,31.383-9.995,58.504-9.995,58.504 s-13.247-32.699,2.444-75.093c7.985-18.489,20.363-34.629,21.322-35.823c-10.201-12.784-22.759-23.845-37.334-32.445 c2.322,31.962-12.709,53.943-23.487,82.298c-13.246,34.852,1.841,70.468,27.823,86.456c-13.697-2.785-28.379-9.989-39.277-25.344 c-8.698-12.257-19.349-20.219-31.936-18.83c-7.747,0.854-13.779,6.373-17.06,12.834c2.498-1.751,5.355-3.403,8.595-3.609 c13.05-0.828,20.813,8.03,34.383,29.769c14.869,23.819,36.435,27.559,54.49,26.816c3.668,8.006,9.668,14.201,16.881,17.228V258 h19.931v-29.448c7.286-3.014,13.346-9.255,17.032-17.334c18.295,0.959,40.505-2.404,55.71-26.761 c13.569-21.739,21.332-30.597,34.383-29.769c3.241,0.206,6.097,1.858,8.595,3.609C248.719,151.836,242.687,146.317,234.94,145.463z"/> </g>
</svg>